<svg width="48" height="48" viewBox="0 0 48 48" fill="none" xmlns="http://www.w3.org/2000/svg">
<path fill-rule="evenodd" clip-rule="evenodd" d="M24.0483 2.125C15.2514 2.125 7.81046 8.74219 6.83829 17.4932C6.21915 23.0645 8.34122 28.5938 12.5317 32.3184L14.9145 34.4365V37.875V39.125H16.1645H31.6645H32.9145V37.875V34.4365L35.5028 32.1357C39.5683 28.5225 41.6811 23.1963 41.1996 17.7783C40.4115 8.91309 32.9394 2.125 24.0483 2.125ZM9.32267 17.7695C10.1537 10.293 16.5175 4.625 24.0483 4.625C31.6532 4.625 38.037 10.4336 38.7094 18C39.121 22.6289 37.3153 27.1797 33.8417 30.2666L30.8339 32.9404L30.4145 33.3135V33.875V36.625H17.4145V33.875V33.3135L16.995 32.9404L14.1923 30.4492C10.6088 27.2637 8.79337 22.5352 9.32267 17.7695ZM21.6645 43.625H16.1645V41.125H23.9145H31.6645V43.625H26.1645V45.875H21.6645V43.625Z" fill="#030303"/>
</svg>
