<svg width="48" height="48" viewBox="0 0 48 48" fill="none" xmlns="http://www.w3.org/2000/svg">
<path fill-rule="evenodd" clip-rule="evenodd" d="M42 3.86627V1.38477L40.006 2.86183L28.5 11.3848V6.36627V3.96546L26.5332 5.34223L13.5456 14.4336C8.81649 17.7439 6 23.1534 6 28.926C6 38.7111 14.0888 46.6163 23.8437 46.6163C33.7697 46.6163 42 38.5724 42 28.6163V3.86627ZM27.994 14.8707L39.5 6.34778V28.6163C39.5 37.1616 32.4193 44.1163 23.8437 44.1163C15.4392 44.1163 8.5 37.3003 8.5 28.926C8.5 23.9692 10.9185 19.3242 14.9792 16.4816L26 8.76709V13.8663V16.3478L27.994 14.8707ZM27.25 20.8663V33.2687C27.25 36.6363 24.52 39.3663 21.1525 39.3663C16.9358 39.3663 13.9919 35.1889 15.4101 31.2179L15.5798 30.7428C16.0164 29.5202 16.8116 28.4578 17.8615 27.6943L27.25 20.8663Z" fill="black"/>
</svg>
