<svg width="48" height="48" viewBox="0 0 48 48" fill="none" xmlns="http://www.w3.org/2000/svg">
<path d="M11.75 25V25C11.75 26.2442 12.3909 27.4006 13.446 28.06L30.2685 38.5741C31.1901 39.1501 31.75 40.1602 31.75 41.247V45H16.25V41.247C16.25 40.1602 16.8099 39.1501 17.7315 38.5741L34.554 28.06C35.6091 27.4006 36.25 26.2442 36.25 25V25M11.75 25V25C8.16015 25 5.25 22.0899 5.25 18.5V9.5H11.75M11.75 25V9.5M11.75 9.5V3H36.25V9.5M36.25 9.5H42.75V18.5C42.75 22.0899 39.8399 25 36.25 25V25M36.25 9.5V25" stroke="black" stroke-width="2.5"/>
</svg>
