<svg width="48" height="48" viewBox="0 0 48 48" fill="none" xmlns="http://www.w3.org/2000/svg">
<path fill-rule="evenodd" clip-rule="evenodd" d="M8.5 41.3338V5.60156H39.5V34.1016H16.4571C15.993 34.1016 15.5479 34.2859 15.2197 34.6141L8.5 41.3338ZM7.75 3.10156C6.7835 3.10156 6 3.88506 6 4.85156V43.1445C6 44.7035 7.88499 45.4843 8.98744 44.3819L16.7678 36.6016H40.25C41.2165 36.6016 42 35.8181 42 34.8516V4.85156C42 3.88507 41.2165 3.10156 40.25 3.10156H7.75ZM26.25 9.85156H21.75V22.8516H26.25V9.85156ZM26.25 25.3516H21.75V29.8516H26.25V25.3516Z" fill="black"/>
</svg>
