<svg width="48" height="48" viewBox="0 0 48 48" fill="none" xmlns="http://www.w3.org/2000/svg">
<path fill-rule="evenodd" clip-rule="evenodd" d="M35.5526 6.99725C35.0211 6.73154 34.3912 6.75362 33.8797 7.05588L23.765 13.0327L14.1452 7.07754C13.6291 6.75806 12.9843 6.72881 12.4414 7.00026L2.96738 11.7373C2.37451 12.0337 2 12.6397 2 13.3025V29.6811C2 30.3501 2.38145 30.9606 2.98276 31.2539L22.9854 41.0113C23.4644 41.245 24.0238 41.2476 24.505 41.0185L45.0024 31.2578C45.6118 30.9676 46 30.3528 46 29.6778V13.3025C46 12.6397 45.6255 12.0337 45.0326 11.7373L35.5526 6.99725ZM24.6463 15.4158L34.7999 9.41598L43.5 13.7661V29.2043L23.7565 38.6059L4.5 29.2125V13.7661L13.1851 9.42349L22.8349 15.3972C23.3883 15.7397 24.086 15.7469 24.6463 15.4158ZM10.75 15.4935H15.25V19.9945H19.7515V24.4945H15.25V28.9955H10.75V24.4945H6.24902V19.9945H10.75V15.4935ZM34.75 25.4935C34.75 27.4265 33.183 28.9935 31.25 28.9935C29.317 28.9935 27.75 27.4265 27.75 25.4935C27.75 23.5605 29.317 21.9935 31.25 21.9935C33.183 21.9935 34.75 23.5605 34.75 25.4935ZM38.25 22.9935C40.183 22.9935 41.75 21.4265 41.75 19.4935C41.75 17.5605 40.183 15.9935 38.25 15.9935C36.317 15.9935 34.75 17.5605 34.75 19.4935C34.75 21.4265 36.317 22.9935 38.25 22.9935Z" fill="#030303"/>
</svg>
