<svg width="48" height="48" viewBox="0 0 48 48" fill="none" xmlns="http://www.w3.org/2000/svg">
<path fill-rule="evenodd" clip-rule="evenodd" d="M26.2515 8.875H37.2515V12.875H26.2515V8.875ZM23.7515 6.375H26.2515H37.2515H39.7515V8.875V12.875V15.375H37.2515H26.2515H26.2485V27.875V32.625C26.2485 37.606 22.1585 41.625 17.1985 41.625C12.2934 41.625 8.24854 37.6506 8.24854 32.7245C8.24854 26.2607 14.9214 21.9525 20.8123 24.6129L23.7485 25.9389V12.875H23.7515V8.875V6.375ZM19.7834 26.8913L23.7485 28.682V32.625C23.7485 36.2044 20.7988 39.125 17.1985 39.125C13.6531 39.125 10.7485 36.249 10.7485 32.7245C10.7485 28.0763 15.5471 24.9782 19.7834 26.8913Z" fill="black"/>
</svg>
