<svg width="48" height="48" viewBox="0 0 48 48" fill="none" xmlns="http://www.w3.org/2000/svg">
<path fill-rule="evenodd" clip-rule="evenodd" d="M5.25 4H4V5.25V42.75V44H5.25H33.75H34.2678L34.6339 43.6339L43.6339 34.6339L44 34.2678V33.75V5.25V4H42.75H5.25ZM6.5 41.5V6.5H41.5V32.75H32.75V41.5H6.5ZM21.75 21.75H12.75V35.2499L21.75 35.2494V21.75ZM23.75 37.2492L12.75 37.2499L10.75 37.25V35.25V21.75V19.75H12.75H21.75H23.75V21.75V37.2492ZM36.75 11.25H10.75V15.25H36.75V11.25ZM26.25 19.75H37.25V24.25H26.25V19.75ZM37.25 26.25H26.25V30.75H37.25V26.25Z" fill="#030303"/>
</svg>
