<svg width="48" height="48" viewBox="0 0 48 48" fill="none" xmlns="http://www.w3.org/2000/svg">
<path fill-rule="evenodd" clip-rule="evenodd" d="M15.2429 6.01909C19.7167 3.84023 24.8421 3.40743 29.618 4.80524C34.3938 6.20304 38.477 9.33105 41.0701 13.5783C43.6631 17.8255 44.5797 22.8868 43.6408 27.7736C42.7018 32.6605 39.9749 37.0217 35.9925 40.0056C32.0102 42.9895 27.0585 44.3816 22.1046 43.91C17.1508 43.4384 12.5508 41.137 9.20292 37.4553C5.85509 33.7737 4 28.9762 4 24H6C6 28.4786 7.66958 32.7963 10.6826 36.1098C13.6957 39.4233 17.8358 41.4946 22.2942 41.919C26.7526 42.3434 31.2091 41.0905 34.7933 38.405C38.3774 35.7196 40.8317 31.7944 41.6767 27.3963C42.5217 22.9981 41.6968 18.4429 39.3631 14.6204C37.0293 10.7979 33.3544 7.98274 29.0562 6.72471C24.7579 5.46669 20.145 5.8562 16.1186 7.81718C12.0921 9.77816 8.94133 13.1697 7.28163 17.3294L5.42403 16.5883C7.26814 11.9664 10.769 8.19796 15.2429 6.01909Z" fill="black"/>
<path fill-rule="evenodd" clip-rule="evenodd" d="M6 16V6H4V18H16V16H6Z" fill="black"/>
<path fill-rule="evenodd" clip-rule="evenodd" d="M21.6331 13.8519H25.6331V24.7999L32.7661 29.7038L30.5 33L21.6331 26.904V13.8519Z" fill="black"/>
</svg>
