<svg width="48" height="48" viewBox="0 0 48 48" fill="none" xmlns="http://www.w3.org/2000/svg">
<path fill-rule="evenodd" clip-rule="evenodd" d="M12.8538 11.125C13.5836 5.89801 18.072 1.875 23.5 1.875H24C29.428 1.875 33.9164 5.89801 34.6462 11.125H39H41.5V13.625V45.125C41.5 45.6773 41.0523 46.125 40.5 46.125H7.5C6.94772 46.125 6.5 45.6773 6.5 45.125V13.625V11.125H9H12.8538ZM15.386 11.125H32.114C31.4086 7.28482 28.0441 4.375 24 4.375H23.5C19.4559 4.375 16.0914 7.28482 15.386 11.125ZM39 43.625V13.625H9V43.625H39ZM23.5 26.875C17.5629 26.875 12.75 22.0621 12.75 16.125H15.25C15.25 20.6813 18.9437 24.375 23.5 24.375H24C28.5564 24.375 32.25 20.6813 32.25 16.125H34.75C34.75 22.0621 29.9371 26.875 24 26.875H23.5Z" fill="black"/>
</svg>
