<svg width="48" height="48" viewBox="0 0 48 48" fill="none" xmlns="http://www.w3.org/2000/svg">
<g clip-path="url(#clip0_202_535)">
<path fill-rule="evenodd" clip-rule="evenodd" d="M13.1113 16.2236C10.2415 17.8805 9.25825 21.55 10.9151 24.4198C11.7764 25.9116 13.1799 26.8931 14.7356 27.26C15.1347 27.354 15.4358 27.6822 15.4955 28.0878C15.5552 28.4934 15.3612 28.8943 15.0061 29.0993L12.6113 30.482C9.74154 32.1388 8.75829 35.8084 10.4151 38.6781C12.072 41.5479 15.7415 42.5311 18.6113 40.8743L34.1998 31.8743C37.0695 30.2174 38.0528 26.5479 36.3959 23.6781C35.5346 22.1863 34.1312 21.2047 32.5754 20.8379C32.1763 20.7438 31.8752 20.4157 31.8155 20.0101C31.7559 19.6045 31.9498 19.2036 32.3049 18.9986L34.6997 17.6159C37.5695 15.9591 38.5527 12.2895 36.8959 9.41977C35.239 6.55001 31.5695 5.56676 28.6997 7.22362L13.1113 16.2236ZM9.18305 25.4198C6.97391 21.5934 8.28492 16.7007 12.1113 14.4916L27.6997 5.49157C31.5261 3.28243 36.4188 4.59343 38.6279 8.41977C40.8371 12.2461 39.5261 17.1388 35.6997 19.348L35.1019 19.6931C36.3213 20.373 37.3792 21.3812 38.128 22.6781C40.3371 26.5045 39.0261 31.3972 35.1998 33.6063L19.6113 42.6063C15.785 44.8155 10.8922 43.5045 8.68309 39.6781C6.47395 35.8518 7.78495 30.9591 11.6113 28.7499L12.2091 28.4047C10.9897 27.7249 9.93185 26.7167 9.18305 25.4198Z" fill="black"/>
<path d="M30 24L21 29.1962L21 18.8038L30 24Z" fill="black"/>
</g>
<defs>
<clipPath id="clip0_202_535">
<rect width="48" height="48" fill="white"/>
</clipPath>
</defs>
</svg>
