<svg width="48" height="48" viewBox="0 0 48 48" fill="none" xmlns="http://www.w3.org/2000/svg">
<path fill-rule="evenodd" clip-rule="evenodd" d="M10.25 5.75H42.25V34.503C41.514 33.3539 40.6546 32.2845 39.685 31.315C37.9207 29.5507 35.8262 28.1511 33.521 27.1963C32.7149 26.8624 31.8885 26.5852 31.048 26.3658C33.5729 24.7717 35.25 21.9567 35.25 18.75C35.25 13.7794 31.2206 9.75 26.25 9.75C21.2794 9.75 17.25 13.7794 17.25 18.75C17.25 21.9567 18.9271 24.7717 21.452 26.3658C20.6115 26.5852 19.7851 26.8624 18.979 27.1963C16.6738 28.1511 14.5793 29.5507 12.815 31.315C11.8454 32.2845 10.986 33.3539 10.25 34.503V5.75ZM38.2708 32.7292C39.7223 34.1807 40.8979 35.882 41.7419 37.75H10.7581C11.6021 35.882 12.7777 34.1807 14.2292 32.7292C15.8078 31.1506 17.6818 29.8984 19.7444 29.044C21.8069 28.1897 24.0175 27.75 26.25 27.75C28.4825 27.75 30.6931 28.1897 32.7556 29.044C34.8182 29.8984 36.6922 31.1506 38.2708 32.7292ZM33.25 18.75C33.25 22.616 30.116 25.75 26.25 25.75C22.384 25.75 19.25 22.616 19.25 18.75C19.25 14.884 22.384 11.75 26.25 11.75C30.116 11.75 33.25 14.884 33.25 18.75ZM8.25 39.75V3.75H44.25V39.75H8.25ZM3.75 8.75V43.25V44.25H4.75H40.2499V42.25H5.75V8.75H3.75Z" fill="black"/>
</svg>
