<svg width="48" height="48" viewBox="0 0 48 48" fill="none" xmlns="http://www.w3.org/2000/svg">
<path d="M28 24C28 26.2091 26.2091 28 24 28C21.7909 28 20 26.2091 20 24C20 21.7909 21.7909 20 24 20C26.2091 20 28 21.7909 28 24Z" fill="black"/>
<path fill-rule="evenodd" clip-rule="evenodd" d="M33.239 20.1731C32.7365 18.9598 31.9999 17.8574 31.0713 16.9289L32.4855 15.5146C33.5998 16.629 34.4837 17.9518 35.0868 19.4077C35.6898 20.8636 36.0002 22.4241 36.0002 23.9999C36.0002 25.5758 35.6898 27.1362 35.0868 28.5921C34.4837 30.048 33.5998 31.3709 32.4855 32.4852L31.0713 31.071C31.9999 30.1424 32.7365 29.04 33.239 27.8268C33.7416 26.6135 34.0002 25.3131 34.0002 23.9999C34.0002 22.6867 33.7416 21.3864 33.239 20.1731Z" fill="black"/>
<path fill-rule="evenodd" clip-rule="evenodd" d="M16.9289 16.9289C16.0003 17.8574 15.2638 18.9598 14.7612 20.1731C14.2587 21.3864 14 22.6867 14 23.9999C14 25.3131 14.2587 26.6135 14.7612 27.8268C15.2638 29.04 16.0003 30.1424 16.9289 31.071L15.5147 32.4852C14.4004 31.3709 13.5165 30.048 12.9134 28.5921C12.3104 27.1362 12 25.5758 12 23.9999C12 22.4241 12.3104 20.8636 12.9134 19.4077C13.5165 17.9518 14.4004 16.629 15.5147 15.5146L16.9289 16.9289Z" fill="black"/>
<path fill-rule="evenodd" clip-rule="evenodd" d="M40.6299 17.1113C39.7254 14.9274 38.3995 12.9431 36.728 11.2716L38.1422 9.85742C39.9994 11.7146 41.4726 13.9194 42.4777 16.3459C43.4828 18.7724 44.0001 21.3731 44.0001 23.9996C44.0001 26.626 43.4828 29.2267 42.4777 31.6532C41.4726 34.0797 39.9994 36.2845 38.1422 38.1417L36.728 36.7275C38.3995 35.056 39.7254 33.0717 40.6299 30.8879C41.5345 28.704 42.0001 26.3634 42.0001 23.9996C42.0001 21.6358 41.5345 19.2951 40.6299 17.1113Z" fill="black"/>
<path fill-rule="evenodd" clip-rule="evenodd" d="M11.2721 11.2716C9.60063 12.9431 8.27475 14.9274 7.37017 17.1113C6.46558 19.2951 6 21.6358 6 23.9996C6 26.3634 6.46558 28.704 7.37017 30.8879C8.27475 33.0717 9.60062 35.056 11.2721 36.7275L9.85786 38.1417C8.00069 36.2845 6.5275 34.0797 5.52241 31.6532C4.51732 29.2267 4 26.626 4 23.9996C4 21.3731 4.51732 18.7724 5.52241 16.3459C6.5275 13.9194 8.00069 11.7146 9.85787 9.85742L11.2721 11.2716Z" fill="black"/>
</svg>
