<svg width="48" height="48" viewBox="0 0 48 48" fill="none" xmlns="http://www.w3.org/2000/svg">
<path fill-rule="evenodd" clip-rule="evenodd" d="M16.3741 10.0147C21.2816 7.12794 27.4505 7.17498 32.2694 10.1868C40.5918 15.3883 41.912 26.9798 34.9722 33.9196L34.1688 34.723L35.583 36.1373L36.3864 35.3338C44.2356 27.4846 42.7425 14.374 33.3293 8.49077C27.869 5.07807 20.9006 5.03173 15.36 8.29088C5.40162 14.1488 3.49503 27.9484 11.6839 36.1373L13.0981 34.723C5.8536 27.4785 7.51979 15.2231 16.3741 10.0147ZM28.8105 15.7144C25.9311 13.9148 22.241 13.8853 19.3048 15.6125C14.0001 18.733 13.008 26.0723 17.3405 30.4049L15.9263 31.8191C10.6494 26.5422 11.8819 17.6586 18.2907 13.8887C21.8599 11.7891 26.3497 11.8179 29.8705 14.0184C35.9373 17.8101 36.8996 26.26 31.8408 31.3188L31.3405 31.8191L29.9263 30.4049L30.4266 29.9046C34.576 25.7552 33.7866 18.8245 28.8105 15.7144ZM25.8207 27.1039C27.0501 26.4214 27.8821 25.11 27.8821 23.6042C27.8821 21.3951 26.0912 19.6042 23.8821 19.6042C21.673 19.6042 19.8821 21.3951 19.8821 23.6042C19.8821 25.0593 20.659 26.3329 21.8207 27.0328V42.112H25.8207V27.1039Z" fill="black"/>
</svg>
