<svg width="23" height="23" viewBox="0 0 23 23" fill="none" xmlns="http://www.w3.org/2000/svg">
<path fill-rule="evenodd" clip-rule="evenodd" d="M1.25 4.5H1.75H16.75H17.25V5V7.94098L21.0264 6.05279L21.75 5.69098V6.5V14.5V15.309L21.0264 14.9472L17.25 13.059V18V18.5H16.75H1.75H1.25V18V5V4.5ZM2.25 5.5V17.5H16.25V12.25V11.441L16.9736 11.8028L20.75 13.691V7.30902L16.9736 9.19721L16.25 9.55902V8.75V5.5H2.25ZM8.25 10.5V7.5H10.25V10.5H13.25V12.5H10.25V15.5H8.25V12.5H5.25V10.5H8.25Z" fill="black"/>
</svg>
