<svg width="23" height="23" viewBox="0 0 23 23" fill="none" xmlns="http://www.w3.org/2000/svg">
<path fill-rule="evenodd" clip-rule="evenodd" d="M17.125 10.125C17.125 13.991 13.991 17.125 10.125 17.125C6.25901 17.125 3.125 13.991 3.125 10.125C3.125 6.25901 6.25901 3.125 10.125 3.125C13.991 3.125 17.125 6.25901 17.125 10.125ZM15.2268 16.2874C13.842 17.4351 12.0641 18.125 10.125 18.125C5.70672 18.125 2.125 14.5433 2.125 10.125C2.125 5.70672 5.70672 2.125 10.125 2.125C14.5433 2.125 18.125 5.70672 18.125 10.125C18.125 12.0641 17.4351 13.842 16.2874 15.2268L20.6553 19.5947C20.9482 19.8876 20.9482 20.3624 20.6553 20.6553C20.3624 20.9482 19.8876 20.9482 19.5947 20.6553L15.2268 16.2874Z" fill="black"/>
</svg>
