<svg width="23" height="23" viewBox="0 0 23 23" fill="none" xmlns="http://www.w3.org/2000/svg">
<path fill-rule="evenodd" clip-rule="evenodd" d="M11.5 2.43359C9.84315 2.43359 8.5 3.77674 8.5 5.43359V11.4336C8.5 13.0904 9.84315 14.4336 11.5 14.4336C13.1569 14.4336 14.5 13.0904 14.5 11.4336V5.43359C14.5 3.77674 13.1569 2.43359 11.5 2.43359ZM4.75 11.4336C4.75 14.908 7.37504 17.7693 10.75 18.1424V20.5654H12.25V18.1424C15.625 17.7693 18.25 14.908 18.25 11.4336H16.75C16.75 14.3331 14.3995 16.6836 11.5 16.6836C8.60051 16.6836 6.25 14.3331 6.25 11.4336H4.75Z" fill="black"/>
</svg>
