<svg width="24" height="23" viewBox="0 0 24 23" fill="none" xmlns="http://www.w3.org/2000/svg">
<path fill-rule="evenodd" clip-rule="evenodd" d="M6.625 9.57121C6.625 6.15334 8.86046 3.14132 12.1219 2.14527C15.2469 3.14082 17.375 6.04547 17.375 9.33291V15.301C17.375 15.7549 17.743 16.1229 18.1969 16.1229H18.25C19.0094 16.1229 19.625 16.7385 19.625 17.4979V17.871H4.375V17.4979C4.375 16.7385 4.99061 16.1229 5.75 16.1229H5.80686C6.25871 16.1229 6.625 15.7566 6.625 15.3048V9.57121ZM12.3162 1.15845C12.1934 1.12111 12.0624 1.12037 11.9392 1.15626C8.1985 2.24607 5.625 5.67484 5.625 9.57121V15.1261C4.37143 15.1911 3.375 16.2282 3.375 17.4979V17.9129C3.375 18.442 3.80391 18.871 4.33301 18.871H19.667C20.1961 18.871 20.625 18.442 20.625 17.9129V17.4979C20.625 16.2282 19.6286 15.1911 18.375 15.1261V9.33291C18.375 5.57148 15.9151 2.25252 12.3162 1.15845ZM11.875 21.871C12.9796 21.871 13.875 20.9755 13.875 19.871H9.875C9.875 20.9755 10.7704 21.871 11.875 21.871Z" fill="black"/>
</svg>
